<svg id="Capa_1" enable-background="new 0 0 512 512" height="512" viewBox="0 0 512 512" width="512" xmlns="http://www.w3.org/2000/svg"><g><g><path d="m134.95 205.661c-36.731 10.954-76.695 1.087-104.198-26.417-28.323-28.322-37.981-69.582-25.205-107.677 1.547-4.613 5.235-8.188 9.894-9.593 4.657-1.403 9.708-.462 13.546 2.529l53.563 41.731 23.684-23.685-41.73-53.563c-2.99-3.838-3.933-8.889-2.529-13.547s4.98-8.347 9.593-9.894c38.095-12.774 79.355-3.116 107.677 25.207 27.503 27.503 37.369 67.466 26.416 104.197l171.389 171.39c36.732-10.952 76.695-1.088 104.198 26.416 28.323 28.322 37.981 69.582 25.206 107.678-1.547 4.613-5.235 8.188-9.894 9.593-4.659 1.401-9.709.46-13.546-2.529l-53.563-41.73-23.684 23.684 41.73 53.563c2.99 3.838 3.933 8.888 2.529 13.547-1.404 4.658-4.98 8.347-9.593 9.894-11.119 3.729-22.51 5.547-33.768 5.547-27.313.001-53.854-10.696-73.91-30.753-27.503-27.504-37.369-67.467-26.416-104.198z" fill="#dadfe7"/></g><path d="m134.95 205.661 171.388 171.387c-10.953 36.731-1.087 76.694 26.416 104.198 20.056 20.057 46.597 30.754 73.91 30.753 11.258 0 22.649-1.818 33.768-5.547 4.613-1.547 8.189-5.235 9.593-9.894s.461-9.709-2.529-13.547l-41.73-53.563 11.842-11.842-323.216-323.214-11.842 11.843-53.563-41.732c-3.838-2.991-8.889-3.933-13.546-2.529-4.659 1.404-8.347 4.979-9.894 9.593-12.776 38.096-3.118 79.355 25.206 107.678 27.503 27.503 67.466 37.37 104.197 26.416z" fill="#c6d0da"/><path d="m89.055 227.946h320v70h-320z" fill="#9d5e4a" transform="matrix(.707 -.707 .707 .707 -112.984 253.123)"/><path d="m101.429 257.82h320v35h-320z" fill="#7d4a3b" transform="matrix(.707 -.707 .707 .707 -118.11 265.497)"/><path d="m14.621 497.379c-19.495-19.495-19.495-51.216 0-70.711l102.53-102.53c5.858-5.858 15.355-5.858 21.213 0l49.497 49.497c5.858 5.858 5.858 15.355 0 21.213l-102.53 102.53c-19.494 19.496-51.214 19.496-70.71.001z" fill="#ff8493"/><path d="m420.448 253.833c-9.349 0-18.139-3.642-24.749-10.252l-127.279-127.28c-13.646-13.646-13.646-35.851 0-49.497l56.568-56.569c13.647-13.646 35.851-13.646 49.498 0l127.279 127.279c13.646 13.646 13.646 35.851 0 49.497l-56.568 56.569c-6.611 6.611-15.4 10.253-24.749 10.253z" fill="#00429b"/><path d="m85.332 497.379 102.531-102.531c5.858-5.858 5.858-15.355 0-21.213l-24.749-24.749-148.493 148.493c19.496 19.495 51.216 19.495 70.711 0z" fill="#e20059"/><path d="m395.699 243.581c6.61 6.61 15.4 10.252 24.749 10.252s18.138-3.642 24.749-10.252l56.568-56.569c13.646-13.646 13.646-35.851 0-49.497l-63.64-63.64-106.066 106.065z" fill="#00337a"/></g></svg>