<svg id="Layer_1" enable-background="new 0 0 481 481" height="512" viewBox="0 0 481 481" width="512" xmlns="http://www.w3.org/2000/svg"><path d="m472.5 393v48c0 17.67-14.33 32-32 32h-400c-17.67 0-32-14.33-32-32v-48c0-17.67 14.33-32 32-32h6l18.11-210.06c1.07-12.41 11.45-21.94 23.91-21.94h228.98v-45h-21c-13.25 0-24-10.75-24-24v-28c0-13.25 10.75-24 24-24h100c13.25 0 24 10.75 24 24v28c0 13.25-10.75 24-24 24h-21v45h16.98c12.46 0 22.84 9.53 23.91 21.94l18.11 210.06h6c17.67 0 32 14.33 32 32z" fill="#b9dcff"/><path d="m317.5 84h58v45h-58z" fill="#a2d0ff"/><path d="m420.5 32v28c0 13.25-10.75 24-24 24-11.869 0-87.166 0-100 0-13.25 0-24-10.75-24-24v-28c0-13.25 10.75-24 24-24h100c13.25 0 24 10.75 24 24z" fill="#d1e7ff"/><path d="m221.5 249v36c0 8.84-7.16 16-16 16h-80c-8.84 0-16-7.16-16-16v-36c0-8.84 7.16-16 16-16h80c8.84 0 16 7.16 16 16z" fill="#d1e7ff"/><path d="m398.5 38h-72c-13.255 0-24 10.745-24 24 0 18.835-30 21.744-30-2v-28c0-13.255 10.745-24 24-24h100c23.727 0 20.844 30 2 30z" fill="#e8f3ff"/><path d="m206.801 250.314c-29.714 4.489-55.88 21.213-72.459 46.686-1.616 2.482-4.356 4.001-7.318 4.001h-1.524c-8.837 0-16-7.163-16-16v-36c0-8.837 7.163-16 16-16 .204 0 80.056-.001 80.258.002 10.573.168 11.499 15.731 1.043 17.311z" fill="#e8f3ff"/><path d="m451.644 362.994c-7.756-2.881 17.155-1.994-361.694-1.994l14.66-170.06c1.07-12.41 11.45-21.94 23.91-21.94h265.661c17.128 0 26.801-20.302 15.447-33.125-3.66-4.134-9.074-6.875-17.148-6.875h-303.96c-12.46 0-22.84 9.53-23.91 21.94l-18.11 210.06h-6c-17.673 0-32 14.327-32 32 0 51.933-.656 52.011 1.994 59.144 9.558 25.726 48.006 18.3 48.006-9.144 0-17.673 14.327-32 32-32h352c27.444 0 34.87-38.448 9.144-48.006z" fill="#d1e7ff"/><path d="m221.5 178h-112c0-1.036 0-125.251 0-124.215 0-6.143 6.636-9.994 11.969-6.946l12.062 6.892c2.459 1.405 5.479 1.405 7.938 0l20.062-11.464c2.459-1.405 5.479-1.405 7.938 0l20.062 11.464c2.459 1.405 5.479 1.405 7.938 0l12.062-6.892c5.333-3.048 11.969.803 11.969 6.946z" fill="#d1e7ff"/><path d="m209.53 46.84c5.33-3.05 11.97.8 11.97 6.95v17.237c0 6.701-4.19 12.659-10.467 15.005-40.931 15.293-67.712 49.754-72.743 91.968h-28.79v-124.21c0-6.15 6.64-10 11.97-6.95l12.06 6.89c2.46 1.41 5.48 1.41 7.94 0l20.06-11.46c2.46-1.41 5.48-1.41 7.94 0l20.06 11.46c2.46 1.41 5.48 1.41 7.94 0z" fill="#e8f3ff"/><path d="m440.5 353h-385.281l17.36-201.374c.719-8.338 7.572-14.626 15.941-14.626h12.98v33h-10c-4.418 0-8 3.582-8 8s3.582 8 8 8h148c4.418 0 8-3.582 8-8s-3.582-8-8-8h-10v-130c0-6.138-6.644-9.987-11.969-6.946l-24.031 13.732-24.031-13.732c-2.46-1.404-5.479-1.404-7.938 0l-24.031 13.732-24.031-13.732c-5.331-3.044-11.969.816-11.969 6.946v81h-12.98c-16.738 0-30.444 12.575-31.881 29.251l-17.482 202.783c-21.435.712-38.657 18.361-38.657 39.966v48c0 22.056 17.944 40 40 40h400c22.056 0 40-17.944 40-40v-48c0-22.056-17.944-40-40-40zm-323-299.215 16.031 9.161c2.46 1.404 5.479 1.404 7.938 0l24.031-13.732 24.031 13.732c2.46 1.404 5.479 1.404 7.938 0l16.031-9.161v116.215h-96zm347 387.215c0 13.233-10.767 24-24 24h-400c-13.233 0-24-10.767-24-24v-48c0-13.233 10.767-24 24-24h400c13.233 0 24 10.767 24 24zm-216-312c0-4.418 3.582-8 8-8h53v-10c0-4.418 3.582-8 8-8s8 3.582 8 8v10h42v-10c0-4.418 3.582-8 8-8s8 3.582 8 8v10h8.98c16.738 0 30.444 12.575 31.881 29.251l14.255 165.354c.38 4.402-2.881 8.278-7.283 8.658-4.451.372-8.281-2.918-8.657-7.283l-14.255-165.354c-.719-8.338-7.572-14.626-15.941-14.626h-135.98c-4.418 0-8-3.582-8-8zm48-37h100c17.645 0 32-14.355 32-32v-28c0-17.645-14.355-32-32-32h-100c-17.645 0-32 14.355-32 32v28c0 17.645 14.355 32 32 32zm-16-60c0-8.822 7.178-16 16-16h100c8.822 0 16 7.178 16 16v28c0 8.822-7.178 16-16 16h-100c-8.822 0-16-7.178-16-16zm-155 193c-13.233 0-24 10.767-24 24v36c0 13.233 10.767 24 24 24h80c13.233 0 24-10.767 24-24v-36c0-13.233-10.767-24-24-24zm88 24v36c0 4.411-3.589 8-8 8h-80c-4.411 0-8-3.589-8-8v-36c0-4.411 3.589-8 8-8h80c4.411 0 8 3.589 8 8zm75-21c0 4.418-3.582 8-8 8h-9c-4.418 0-8-3.582-8-8s3.582-8 8-8h9c4.418 0 8 3.582 8 8zm50 0c0 4.418-3.582 8-8 8h-9c-4.418 0-8-3.582-8-8s3.582-8 8-8h9c4.418 0 8 3.582 8 8zm50 0c0 4.418-3.582 8-8 8h-9c-4.418 0-8-3.582-8-8s3.582-8 8-8h9c4.418 0 8 3.582 8 8zm-100 60c0 4.418-3.582 8-8 8h-9c-4.418 0-8-3.582-8-8s3.582-8 8-8h9c4.418 0 8 3.582 8 8zm50 0c0 4.418-3.582 8-8 8h-9c-4.418 0-8-3.582-8-8s3.582-8 8-8h9c4.418 0 8 3.582 8 8zm50 0c0 4.418-3.582 8-8 8h-9c-4.418 0-8-3.582-8-8s3.582-8 8-8h9c4.418 0 8 3.582 8 8z" fill="#2e58ff"/></svg>