<?xml version="1.0" encoding="iso-8859-1"?>
<!-- Generator: Adobe Illustrator 19.0.0, SVG Export Plug-In . SVG Version: 6.00 Build 0)  -->
<svg version="1.1" id="Capa_1" xmlns="http://www.w3.org/2000/svg" xmlns:xlink="http://www.w3.org/1999/xlink" x="0px" y="0px"
	 viewBox="0 0 512.002 512.002" style="enable-background:new 0 0 512.002 512.002;" xml:space="preserve">
<g>
	<path style="fill:#FF8D8D;" d="M121.684,182.285l126.158,72.84l63.462-109.549c24.932-43.04,9.974-98.66-33.102-123.529
		c-43.075-24.869-98.659-9.976-123.528,33.098L91.372,164.783L121.684,182.285z"/>
	<path style="fill:#FD4A4A;" d="M247.842,255.124l-126.158-72.84l-30.313-17.502L28.07,274.427
		c-24.868,43.075-9.974,98.66,33.102,123.529c40.679,23.484,92.51,11.503,119.097-26.179L247.842,255.124z"/>
	<ellipse style="fill:#FEC478;" cx="371.58" cy="377.56" rx="124.44" ry="35.555"/>
	<path style="fill:#FFA655;" d="M371.58,413.112c-68.729,0-124.443-15.916-124.444-35.555v88.887
		c0,19.639,55.716,35.557,124.444,35.557s124.444-15.918,124.444-35.557l-0.001-88.887
		C496.023,397.196,440.308,413.112,371.58,413.112z"/>
</g>
<path d="M329.941,74.505c-6.954-26.027-23.553-47.733-46.738-61.119C268.034,4.629,250.759,0,233.245,0
	c-35.948,0-69.373,19.214-87.23,50.144l-63.284,109.61c-0.006,0.01-0.013,0.019-0.019,0.029c-0.006,0.01-0.01,0.021-0.016,0.031
	L19.41,269.427C-8.278,317.385,8.214,378.928,56.172,406.616C71.338,415.372,88.611,420,106.123,420
	c32.786,0,63.559-15.872,82.316-42.457c0.172-0.244,0.333-0.495,0.482-0.752l131.037-226.202
	C333.335,127.495,336.88,100.476,329.941,74.505z M171.846,366.366C156.807,387.435,132.272,400,106.123,400
	c-14.006,0-27.821-3.702-39.951-10.705c-38.408-22.174-51.615-71.461-29.441-109.869l58.303-100.983l21.646,12.497
	c0.002,0.001,0.003,0.003,0.005,0.003c0.001,0.001,0.003,0.001,0.004,0.002l117.482,67.831L171.846,366.366z M302.651,140.562
	l-58.456,100.91l-108.851-62.847l27.976-48.456c2.761-4.783,1.123-10.899-3.66-13.66c-4.783-2.762-10.899-1.123-13.66,3.66
	l-27.976,48.456l-12.991-7.5l58.301-100.98C177.631,35.382,204.419,20,233.245,20c14.008,0,27.826,3.702,39.958,10.707
	c18.555,10.712,31.843,28.101,37.416,48.961C316.177,100.472,313.347,122.098,302.651,140.562z"/>
<path d="M506.026,377.557c0-14.751-14.728-26.439-43.773-34.737c-24.418-6.977-56.62-10.819-90.673-10.819
	s-66.254,3.842-90.672,10.819c-29.012,8.289-43.737,19.959-43.771,34.686c0,0.018-0.003,0.034-0.003,0.051v88.888
	c0,14.778,14.704,26.473,43.702,34.758c24.372,6.964,56.599,10.799,90.742,10.799s66.37-3.835,90.742-10.799
	c28.999-8.285,43.702-19.98,43.702-34.758v-88.826C506.024,377.599,506.026,377.578,506.026,377.557z M286.403,362.051
	c22.682-6.48,52.932-10.049,85.178-10.049c32.247,0,62.497,3.569,85.179,10.049c24.111,6.889,29.237,14.288,29.266,15.495
	c0,0.004-0.001,0.008-0.001,0.012v0.017c-0.041,1.22-5.183,8.608-29.265,15.489c-22.682,6.48-52.932,10.049-85.179,10.049
	c-32.246,0-62.496-3.569-85.178-10.049c-24.179-6.908-29.267-14.331-29.267-15.506S262.224,368.959,286.403,362.051z
	 M456.828,481.973c-22.636,6.467-52.911,10.029-85.248,10.029c-32.338,0-62.612-3.561-85.248-10.029
	c-24.001-6.857-29.196-14.102-29.196-15.528V403.13c6.403,3.405,14.326,6.465,23.773,9.164
	c24.418,6.977,56.619,10.819,90.672,10.819s66.255-3.842,90.673-10.819c9.446-2.699,17.367-5.758,23.771-9.163v24.956
	c-14.348,7.1-32.246,12.85-52.205,16.731c-5.422,1.054-8.962,6.303-7.908,11.725c0.929,4.777,5.114,8.093,9.806,8.093
	c0.633,0,1.275-0.061,1.919-0.186c17.812-3.463,34.238-8.363,48.389-14.377v16.372C486.024,467.871,480.829,475.115,456.828,481.973
	z"/>
<path d="M174.683,90.486c-4.783-2.761-10.898-1.123-13.66,3.66l-0.162,0.281c-2.761,4.783-1.123,10.898,3.66,13.66
	c1.575,0.909,3.294,1.341,4.991,1.341c3.456,0,6.817-1.793,8.669-5.001l0.162-0.281C181.105,99.363,179.466,93.248,174.683,90.486z"
	/>
<path d="M404.768,449.006l-0.225,0.022c-5.498,0.52-9.533,5.4-9.012,10.898c0.49,5.177,4.846,9.057,9.943,9.057
	c0.315,0,0.635-0.015,0.955-0.045l0.329-0.032c5.495-0.549,9.505-5.45,8.955-10.945
	C415.165,452.467,410.275,448.458,404.768,449.006z"/>
<g>
</g>
<g>
</g>
<g>
</g>
<g>
</g>
<g>
</g>
<g>
</g>
<g>
</g>
<g>
</g>
<g>
</g>
<g>
</g>
<g>
</g>
<g>
</g>
<g>
</g>
<g>
</g>
<g>
</g>
</svg>
