<svg height="512" viewBox="0 0 512 512" width="512" xmlns="http://www.w3.org/2000/svg" xmlns:xlink="http://www.w3.org/1999/xlink"><linearGradient id="New_Gradient_Swatch_13" gradientUnits="userSpaceOnUse" x1="88.65" x2="382.741" y1="475.561" y2="181.47"><stop offset="0" stop-color="#d46669"/><stop offset="1" stop-color="#dd888a"/></linearGradient><linearGradient id="New_Gradient_Swatch_3" gradientUnits="userSpaceOnUse" x1="69.594" x2="154.406" y1="442.406" y2="357.594"><stop offset=".011" stop-color="#606082"/><stop offset="1" stop-color="#83839e"/></linearGradient><linearGradient id="New_Gradient_Swatch_22" gradientUnits="userSpaceOnUse" x1="89.373" x2="134.627" y1="422.627" y2="377.373"><stop offset=".011" stop-color="#dcdce3"/><stop offset="1" stop-color="#ededf1"/></linearGradient><linearGradient id="New_Gradient_Swatch_3-2" x1="373.594" x2="458.406" xlink:href="#New_Gradient_Swatch_3" y1="442.406" y2="357.594"/><linearGradient id="New_Gradient_Swatch_22-2" x1="393.373" x2="438.627" xlink:href="#New_Gradient_Swatch_22" y1="422.627" y2="377.373"/><linearGradient id="New_Gradient_Swatch_3-3" x1="112.836" x2="257.581" xlink:href="#New_Gradient_Swatch_3" y1="273.221" y2="128.476"/><linearGradient id="New_Gradient_Swatch_3-4" x1="11.992" x2="155.89" xlink:href="#New_Gradient_Swatch_3" y1="257.409" y2="113.511"/><linearGradient id="New_Gradient_Swatch_3-5" x1="278.522" x2="369.193" xlink:href="#New_Gradient_Swatch_3" y1="271.493" y2="180.822"/><g id="_02-car" data-name="02-car"><g id="gradient"><path d="m400 256-48.483-78.7a35.857 35.857 0 0 0 -27.94-13.3h-239.8a43.762 43.762 0 0 0 -39.355 24.322l-35.777 71.556a43.992 43.992 0 0 0 -4.645 19.676v96.446a36 36 0 0 0 36 36h432a36 36 0 0 0 36-36v-64.3a11.99 11.99 0 0 0 -7.415-11.089c-39.712-16.38-100.585-44.611-100.585-44.611z" fill="url(#New_Gradient_Swatch_13)"/><circle cx="112" cy="400" fill="url(#New_Gradient_Swatch_3)" r="60"/><circle cx="112" cy="400" fill="url(#New_Gradient_Swatch_22)" r="32"/><circle cx="416" cy="400" fill="url(#New_Gradient_Swatch_3-2)" r="60"/><circle cx="416" cy="400" fill="url(#New_Gradient_Swatch_22-2)" r="32"/><path d="m288 300h-15a12 12 0 0 1 0-24h15a12 12 0 0 1 0 24z" fill="#cf5558"/><path d="m112 300h-16a12 12 0 0 1 0-24h16a12 12 0 0 1 0 24z" fill="#cf5558"/><path d="m100.6 256h107.406a12 12 0 0 0 11.994-12v-51a12 12 0 0 0 -12-12h-80.889a12 12 0 0 0 -10.592 6.362c-5.982 11.225-18.175 34.788-26.594 51.154a12 12 0 0 0 10.675 17.484z" fill="url(#New_Gradient_Swatch_3-3)"/><path d="m44.422 188.322-33.838 67.678h35.551a15.993 15.993 0 0 0 14.265-8.758c9.284-18.3 30.02-58.92 30.02-58.92l.039-.078a5 5 0 0 0 -4.469-7.244h-36.953a44.6 44.6 0 0 0 -4.615 7.322z" fill="url(#New_Gradient_Swatch_3-4)"/><path d="m256 193v51a12 12 0 0 0 12 12h132l-46.2-75h-85.8a12 12 0 0 0 -12 12z" fill="url(#New_Gradient_Swatch_3-5)"/></g></g></svg>