<?xml version="1.0" encoding="iso-8859-1"?>
<!-- Generator: Adobe Illustrator 19.0.0, SVG Export Plug-In . SVG Version: 6.00 Build 0)  -->
<svg version="1.1" id="Capa_1" xmlns="http://www.w3.org/2000/svg" xmlns:xlink="http://www.w3.org/1999/xlink" x="0px" y="0px"
	 viewBox="0 0 464 464" style="enable-background:new 0 0 464 464;" xml:space="preserve">
<path style="fill:#FDB62F;" d="M214.816,64.307v117.744c0.063,62.559,26.696,122.147,73.264,163.92
	c25.812,23.103,64.557,24.119,91.544,2.4l2.456-1.968c51.837-41.737,81.962-104.721,81.92-171.272V64.307
	C383.146,37.227,295.67,37.227,214.816,64.307L214.816,64.307z"/>
<path style="fill:#FFA83D;" d="M416,51.579v123.552c0.039,66.548-30.085,129.528-81.92,171.264l-2.456,1.968
	c-6.099,4.9-12.968,8.755-20.328,11.408c23.202,8.425,49.121,4.098,68.328-11.408l2.456-1.968
	c51.835-41.736,81.959-104.716,81.92-171.264V64.307C448.284,59.058,432.252,54.807,416,51.579L416,51.579z"/>
<g>
	<path style="fill:#DE4C3C;" d="M277.112,229.403c39.194,19.703,85.398,19.703,124.592,0l-7.632,23.008
		c-7.784,23.598-29.815,39.552-54.664,39.584c-24.849-0.032-46.88-15.986-54.664-39.584L277.112,229.403z"/>
	<path style="fill:#DE4C3C;" d="M256.336,166.195c-4.418-0.008-7.993-3.596-7.985-8.015c0.003-1.566,0.465-3.096,1.329-4.401
		c14.289-21.559,40.61-31.779,65.704-25.512l5.2,1.304c4.278,1.104,6.851,5.467,5.747,9.745c-1.093,4.235-5.385,6.807-9.635,5.775
		l-5.208-1.304c-18.516-4.602-37.926,2.937-48.48,18.832C261.524,164.854,259.019,166.197,256.336,166.195L256.336,166.195z"/>
	<path style="fill:#DE4C3C;" d="M432.856,169.107c-2.684,0-5.19-1.346-6.672-3.584c-10.55-15.89-29.953-23.429-48.464-18.832
		l-5.224,1.304c-4.318,0.937-8.577-1.804-9.514-6.122c-0.895-4.124,1.568-8.234,5.626-9.39l5.216-1.312
		c25.088-6.25,51.395,3.967,65.688,25.512c2.443,3.681,1.44,8.646-2.241,11.089C435.962,168.641,434.427,169.105,432.856,169.107
		L432.856,169.107z"/>
</g>
<path style="fill:#4398D1;" d="M214.816,130.339C143.702,147.171,69.3,143.799,0,120.603v117.448
	c-0.031,62.579,26.618,122.203,73.264,163.92c25.812,23.103,64.557,24.119,91.544,2.4l2.456-1.968
	c36.464-29.367,62.574-69.632,74.512-114.904c-17.672-32.332-26.942-68.585-26.96-105.432L214.816,130.339z"/>
<path style="fill:#3E8CC7;" d="M214.816,182.051v-51.712c-10.208,2.4-20.488,4.36-30.816,5.952v32.424
	c0.001,44.314,9.712,88.09,28.448,128.248l14.264,30.56c6.308-12.827,11.353-26.236,15.064-40.04
	C224.104,255.15,214.834,218.898,214.816,182.051L214.816,182.051z"/>
<g>
	<path style="fill:#3570AB;" d="M32,243.291c-4.418,0-8-3.582-8-8s3.582-8,8-8c16.818-0.006,32.508-8.457,41.768-22.496l3.472-5.256
		c2.443-3.685,7.411-4.691,11.096-2.248c3.685,2.443,4.691,7.411,2.248,11.096l-3.48,5.256
		C74.882,232.154,54.182,243.291,32,243.291L32,243.291z"/>
	<path style="fill:#3570AB;" d="M187.744,243.291c-22.171,0.014-42.868-11.105-55.096-29.6l-3.488-5.256
		c-2.443-3.683-1.439-8.649,2.244-11.092c3.683-2.443,8.649-1.439,11.092,2.244l3.488,5.256c9.262,14.028,24.95,22.467,41.76,22.464
		c4.418,0,8,3.582,8,8s-3.582,8-8,8V243.291z"/>
	<path style="fill:#3570AB;" d="M70.128,349.595c5.537,8.375,16.46,11.289,25.432,6.784c16.253-8.168,35.411-8.168,51.664,0
		c8.972,4.505,19.895,1.591,25.432-6.784c6.113-9.175,3.647-21.567-5.512-27.704c-27.678-18.559-63.826-18.559-91.504,0
		C66.481,328.028,64.015,340.419,70.128,349.595L70.128,349.595z"/>
</g>
<path style="fill:#87CED9;" d="M187.928,235.867l-15.624,36.456c-3.685,8.636,0.328,18.623,8.964,22.308
	c2.106,0.898,4.371,1.362,6.66,1.364c9.389-0.001,16.999-7.613,16.998-17.002c0-2.301-0.468-4.579-1.374-6.694L187.928,235.867z"/>
<g>
</g>
<g>
</g>
<g>
</g>
<g>
</g>
<g>
</g>
<g>
</g>
<g>
</g>
<g>
</g>
<g>
</g>
<g>
</g>
<g>
</g>
<g>
</g>
<g>
</g>
<g>
</g>
<g>
</g>
</svg>
